HIERARCHY
ROOT Hips
{
	OFFSET	0.00	0.00	0.00
	CHANNELS 6 Xposition Yposition Zposition Zrotation Xrotation Yrotation
	JOINT LeftUpLeg
	{
		OFFSET	 0.126116	-0.014019	-0.065224
		CHANNELS 3 Zrotation Xrotation Yrotation
		JOINT LeftLeg
		{
			OFFSET	 0.000000	 0.000000	 0.569914
			CHANNELS 3 Zrotation Xrotation Yrotation
			JOINT LeftFoot
			{
				OFFSET	 0.000000	 0.000000	 0.544423
				CHANNELS 3 Zrotation Xrotation Yrotation
				JOINT LeftToeBase
				{
					OFFSET	 0.000000	 0.000000	 0.207117
					CHANNELS 3 Zrotation Xrotation Yrotation
					End Site
					{
						OFFSET	 0.000000	 0.000000	 0.207117
					}
				}
			}
		}
	}
	JOINT RightUpLeg
	{
		OFFSET	-0.124023	-0.008373	-0.065224
		CHANNELS 3 Zrotation Xrotation Yrotation
		JOINT RightLeg
		{
			OFFSET	 0.000000	 0.000000	 0.570047
			CHANNELS 3 Zrotation Xrotation Yrotation
			JOINT RightFoot
			{
				OFFSET	 0.000000	 0.000000	 0.544354
				CHANNELS 3 Zrotation Xrotation Yrotation
				JOINT RightToeBase
				{
					OFFSET	 0.000000	 0.000000	 0.207540
					CHANNELS 3 Zrotation Xrotation Yrotation
					End Site
					{
						OFFSET	 0.000000	 0.000000	 0.207540
					}
				}
			}
		}
	}
	JOINT Spine
	{
		OFFSET	 0.000184	-0.007763	 0.117403
		CHANNELS 3 Zrotation Xrotation Yrotation
		JOINT Spine1
		{
			OFFSET	 0.000000	 0.000000	 0.137269
			CHANNELS 3 Zrotation Xrotation Yrotation
			JOINT Spine2
			{
				OFFSET	 0.000000	 0.000000	 0.156879
				CHANNELS 3 Zrotation Xrotation Yrotation
				JOINT LeftShoulder
				{
					OFFSET	 0.080501	-0.002496	 0.160144
					CHANNELS 3 Zrotation Xrotation Yrotation
					JOINT LeftArm
					{
						OFFSET	 0.000000	 0.000000	 0.164363
						CHANNELS 3 Zrotation Xrotation Yrotation
						JOINT LeftForeArm
						{
							OFFSET	 0.000000	 0.000000	 0.364576
							CHANNELS 3 Zrotation Xrotation Yrotation
							JOINT LeftHand
							{
								OFFSET	 0.000000	 0.000000	 0.360812
								CHANNELS 3 Zrotation Xrotation Yrotation
								JOINT LeftHandIndex1
								{
									OFFSET	 0.000000	 0.000000	 0.086006
									CHANNELS 3 Zrotation Xrotation Yrotation
									JOINT LeftHandIndex2
									{
										OFFSET	 0.000000	 0.000000	 0.047236
										CHANNELS 3 Zrotation Xrotation Yrotation
										JOINT LeftHandIndex3
										{
											OFFSET	-0.004284	-0.000551	 0.038166
											CHANNELS 3 Zrotation Xrotation Yrotation
											End Site
											{
												OFFSET	-0.004284	-0.000551	 0.038166
											}
										}
									}
								}
							}
						}
					}
				}
				JOINT Neck
				{
					OFFSET	 0.000000	 0.000000	 0.176489
					CHANNELS 3 Zrotation Xrotation Yrotation
					JOINT Head
					{
						OFFSET	 0.000000	-0.001747	 0.077940
						CHANNELS 3 Zrotation Xrotation Yrotation
						End Site
						{
							OFFSET	 0.000000	-0.001747	 0.077940
						}
					}
				}
				JOINT RightShoulder
				{
					OFFSET	-0.080363	 0.000306	 0.159706
					CHANNELS 3 Zrotation Xrotation Yrotation
					JOINT RightArm
					{
						OFFSET	 0.000000	 0.000000	 0.164196
						CHANNELS 3 Zrotation Xrotation Yrotation
						JOINT RightForeArm
						{
							OFFSET	 0.000000	 0.000000	 0.365611
							CHANNELS 3 Zrotation Xrotation Yrotation
							JOINT RightHand
							{
								OFFSET	 0.000000	 0.000000	 0.360648
								CHANNELS 3 Zrotation Xrotation Yrotation
								JOINT RightHandIndex1
								{
									OFFSET	 0.000000	 0.000000	 0.069977
									CHANNELS 3 Zrotation Xrotation Yrotation
									JOINT RightHandIndex2
									{
										OFFSET	 0.000000	 0.000000	 0.052305
										CHANNELS 3 Zrotation Xrotation Yrotation
										JOINT RightHandIndex3
										{
											OFFSET	 0.009002	-0.000782	 0.042196
											CHANNELS 3 Zrotation Xrotation Yrotation
											End Site
											{
												OFFSET	 0.009002	-0.000782	 0.042196
											}
										}
									}
								}
							}
						}
					}
				}
			}
		}
	}
}
MOTION
Frames:    11
Frame Time: 0.03333334
 0.013516	 0.037047	 1.215571	 179.967900	 0.625619	 0.038804	-18.412920	-11.207140	-174.676600	-1.768099	-40.620200	-7.090148	 179.837500	 83.979300	 166.159700	-2.207988	 46.366180	-0.461685	 8.613642	-9.804481	 177.474000	 6.700693	-40.233840	 9.678638	-156.630900	 83.124310	 166.485700	 2.359004	 32.994950	 0.103106	 1.733578	 5.431748	 0.591145	 1.750918	 10.026180	 0.394297	-3.104437	-24.114400	-0.200157	-91.229320	 83.958310	 178.242600	 61.589670	 72.147750	-48.145780	 7.408401	-11.623650	-25.474870	 24.262600	-9.864315	-8.002438	-11.594980	 8.237870	-24.526020	-5.213937	-0.202400	 3.566957	-1.378229	 35.397820	-2.634230	-1.373025	 7.050577	 5.361747	-4.595202	-19.599640	-7.621974	 87.726780	 87.418960	-176.798700	-82.691540	 62.412560	 72.277800	-7.698829	-12.080650	 22.962080	-38.207310	-8.171679	 18.360480	-0.659085	 25.592530	-61.774330	 5.070519	-0.690904	-9.399550	-2.350882	 35.473990	 5.254307
 0.013126	 0.038709	 1.216775	-179.858200	 0.625394	-0.092652	-18.584610	-10.390790	-174.978400	-1.932781	-40.813280	-7.227568	-177.712100	 83.141420	 163.837900	-2.172555	 48.286800	-0.525215	 8.772243	-8.831296	 178.440800	 6.737765	-40.459490	 9.747759	-166.509300	 82.426530	 176.135200	 2.367334	 31.698980	 0.073340	 1.779724	 5.269354	 0.714415	 1.667473	 11.338240	 0.064705	-2.934313	-24.823750	 0.058678	-91.229100	 83.958340	 178.242400	 43.469420	 66.224750	-43.656470	 9.546912	-0.212078	-0.453495	 23.767210	-10.175990	-8.046042	-11.579240	 7.942791	-24.247220	-5.213937	-0.202400	 3.566957	-1.378229	 35.397820	-2.634230	-1.419643	 6.923900	 5.427849	-4.671353	-19.969210	-7.685628	 87.727180	 87.418960	-176.799100	-65.429020	 59.560200	 66.650580	-9.333551	-0.232267	 0.438215	-37.396670	-8.214594	 18.444390	-0.227269	 26.266370	-61.906120	 5.070519	-0.690904	-9.399550	-2.350882	 35.473990	 5.254307
 0.013184	 0.038595	 1.217149	-179.755600	 0.621640	-0.052448	-18.678050	-10.407570	-175.007000	-1.879110	-40.793360	-7.188879	-177.714200	 83.223150	 163.808300	-2.162544	 48.789000	-0.542513	 8.650448	-8.830774	 178.385600	 6.746927	-40.417360	 9.745688	-166.473500	 82.512370	 176.075400	 2.368003	 31.588370	 0.070830	 1.748582	 5.285059	 0.695523	 1.662359	 11.263630	-0.005670	-2.899307	-24.876460	 0.097393	-91.229240	 83.958340	 178.242600	 44.044000	 66.360630	-44.238460	 9.531374	-0.212313	-0.454451	 23.771470	-10.258840	-8.074507	-11.688550	 7.758131	-24.475830	-5.213937	-0.202400	 3.566957	-1.378229	 35.397820	-2.634230	-1.414860	 6.872087	 5.363096	-4.667592	-20.083780	-7.617276	 87.726970	 87.418890	-176.798900	-65.781090	 59.599210	 66.768500	-9.241287	-0.230896	 0.437295	-37.259560	-8.260967	 18.477180	-0.189255	 26.336540	-61.975930	 5.070519	-0.690904	-9.399550	-2.350882	 35.473990	 5.254307
 0.013222	 0.038345	 1.217515	-179.660400	 0.617118	-0.022609	-18.749130	-10.480870	-174.994400	-1.823972	-40.740280	-7.144500	-177.987200	 83.392920	 164.047500	-2.153013	 49.251680	-0.558736	 8.523446	-8.900153	 178.286700	 6.754908	-40.376270	 9.743004	-165.874700	 82.648670	 175.467900	 2.368608	 31.486430	 0.068523	 1.723691	 5.295728	 0.684823	 1.661851	 11.121440	-0.063254	-2.868319	-24.890870	 0.131203	-91.229260	 83.958310	 178.242600	 45.218100	 66.752810	-45.431630	 9.516563	-0.213257	-0.456597	 23.774910	-10.337440	-8.100903	-11.789800	 7.588543	-24.686490	-5.213937	-0.202400	 3.566957	-1.378229	 35.397820	-2.634230	-1.410513	 6.824368	 5.303417	-4.664131	-20.189360	-7.554327	 87.726810	 87.418960	-176.798800	-66.722050	 59.770740	 67.518740	-9.156210	-0.232450	 0.441838	-37.132260	-8.305734	 18.507220	-0.154137	 26.401130	-62.040340	 5.070519	-0.690904	-9.399550	-2.350882	 35.473990	 5.254307
 0.013249	 0.037977	 1.217893	-179.565100	 0.611823	 0.002300	-18.808810	-10.597090	-174.953200	-1.764496	-40.659170	-7.093317	-178.489700	 83.634650	 164.513000	-2.143228	 49.713000	-0.575174	 8.385229	-9.021899	 178.150500	 6.761955	-40.331450	 9.738953	-164.799300	 82.827310	 174.394100	 2.369220	 31.384820	 0.066214	 1.702392	 5.348802	 0.709342	 1.671549	 10.841460	-0.170149	-2.826233	-24.842560	 0.193494	-91.229290	 83.958310	 178.242600	 46.965900	 67.339700	-47.210890	 9.502170	-0.214431	-0.459480	 23.777840	-10.417900	-8.127272	-11.891250	 7.419978	-24.896590	-5.213937	-0.202400	 3.566957	-1.378229	 35.397820	-2.634230	-1.406238	 6.776764	 5.243920	-4.660670	-20.294630	-7.491614	 87.726780	 87.418960	-176.798800	-68.166050	 60.034410	 68.798260	-9.071324	-0.234174	 0.446718	-37.004470	-8.352261	 18.537010	-0.119065	 26.465450	-62.104600	 5.070519	-0.690904	-9.399550	-2.350882	 35.473990	 5.254307
 0.013270	 0.037522	 1.218275	-179.470900	 0.606039	 0.023019	-18.860030	-10.740490	-174.893200	-1.702336	-40.556850	-7.037454	-179.180500	 83.924170	 165.165200	-2.133276	 50.167930	-0.591661	 8.240707	-9.177174	 177.990100	 6.767661	-40.281750	 9.733025	-163.342400	 83.031760	 172.946100	 2.369808	 31.284610	 0.063955	 1.685901	 5.370325	 0.697897	 1.677308	 10.589800	-0.197399	-2.801785	-24.804200	 0.214471	-91.229260	 83.958270	 178.242600	 50.817600	 68.559070	-48.149310	 9.350242	-2.717526	-5.841303	 23.780290	-10.499370	-8.153461	-11.991770	 7.254253	-25.103800	-5.213937	-0.202400	 3.566957	-1.378229	 35.397820	-2.634230	-1.402055	 6.729835	 5.185244	-4.656882	-20.398350	-7.429729	 87.726860	 87.418960	-176.798800	-69.989000	 60.345380	 70.483810	-8.988018	-0.235858	 0.451649	-36.877510	-8.400051	 18.566220	-0.084380	 26.528810	-62.168060	 5.070519	-0.690904	-9.399550	-2.350882	 35.473990	 5.254307
 0.013296	 0.036998	 1.218663	-179.375500	 0.600044	 0.041827	-18.908300	-10.899680	-174.823400	-1.637366	-40.438890	-6.977674	 179.970800	 84.244770	 165.974100	-2.122910	 50.628190	-0.608631	 8.089736	-9.351619	 177.813300	 6.772012	-40.225080	 9.724807	-161.572700	 83.251300	 171.189900	 2.370398	 31.183230	 0.061668	 1.673154	 5.392310	 0.687098	 1.686353	 10.324900	-0.217498	-2.778745	-24.760350	 0.232086	-91.229330	 83.958370	 178.242600	 57.457380	 70.393600	-48.394600	 8.215625	-8.068460	-17.707090	 23.782290	-10.583790	-8.180053	-12.093970	 7.087115	-25.313510	-5.213937	-0.202400	 3.566957	-1.378229	 35.397820	-2.634230	-1.397897	 6.682351	 5.125907	-4.653191	-20.503370	-7.367174	 87.727090	 87.418820	-176.799100	-74.763170	 61.095840	 70.750590	-8.605954	-4.200841	 8.113853	-36.748290	-8.450118	 18.595710	-0.049220	 26.592860	-62.232340	 5.070519	-0.690904	-9.399550	-2.350882	 35.473990	 5.254307
 0.013336	 0.036438	 1.219048	-179.279500	 0.594334	 0.060721	-18.958190	-11.057470	-174.756700	-1.571696	-40.316730	-6.917021	 179.050700	 84.567000	 166.854700	-2.112144	 51.091530	-0.626018	 7.937308	-9.524739	 177.634600	 6.775378	-40.163460	 9.714918	-159.657200	 83.467120	 169.288400	 2.370991	 31.081170	 0.059366	 1.664491	 5.330754	 0.674265	 1.697181	 10.233680	-0.234618	-2.757004	-24.797080	 0.243868	-91.229250	 83.958370	 178.242600	 63.114890	 71.573290	-50.617240	 7.123070	-10.837770	-24.269160	 23.783770	-10.670960	-8.206973	-12.197350	 6.919395	-25.524680	-5.213937	-0.202400	 3.566957	-1.378229	 35.397820	-2.634230	-1.393735	 6.634521	 5.066154	-4.649158	-20.608980	-7.304157	 87.726890	 87.419040	-176.798800	-80.490690	 61.874940	 70.802770	-7.374794	-9.101297	 17.995920	-36.617240	-8.502451	 18.625160	-0.013749	 26.657260	-62.297120	 5.070519	-0.690904	-9.399550	-2.350882	 35.473990	 5.254307
 0.013199	 0.035818	 1.219430	-179.177300	 0.622065	-0.012995	-19.030950	-11.244200	-174.614100	-1.495427	-40.152780	-6.843736	 178.168000	 84.888490	 167.698600	-2.107467	 51.288570	-0.633506	 7.848695	-9.721487	 177.576400	 6.749629	-40.166030	 9.698155	-158.234900	 83.621540	 167.903700	 2.371824	 30.934750	 0.056078	 1.672219	 5.328394	 0.738066	 1.696046	 10.043770	-0.232359	-2.756799	-24.806070	 0.257677	-91.229290	 83.958310	 178.242600	 68.152530	 72.330220	-53.360270	 6.143399	-12.582090	-28.747740	 23.739830	-10.751760	-8.231087	-12.238800	 6.846374	-25.604430	-5.213937	-0.202400	 3.566957	-1.378229	 35.397820	-2.634230	-1.412328	 6.616648	 5.063295	-4.686100	-20.729580	-7.350012	 87.727230	 87.418890	-176.799200	-84.521450	 62.253410	 71.746770	-6.359246	-11.618280	 23.408100	-36.553260	-8.579374	 18.650520	-0.058609	 26.594480	-62.314960	 5.070519	-0.690904	-9.399550	-2.350882	 35.473990	 5.254307
 0.013007	 0.033031	 1.220972	-178.672000	 0.786141	-0.326654	-19.570870	-11.714600	-174.359700	-1.195543	-39.831270	-6.602684	 178.887000	 85.511490	 166.859800	-2.084959	 52.201840	-0.669003	 7.551692	-10.132220	 177.725500	 6.649843	-40.354330	 9.667999	-158.012600	 83.860230	 167.752900	 2.375880	 30.195570	 0.039581	 1.679614	 5.362354	 0.998979	 1.628822	 10.414670	-0.209244	-2.767910	-25.462120	 0.290129	-91.229170	 83.958310	 178.242500	 73.525890	 72.416440	-57.172180	 4.983535	-13.681560	-32.320390	 23.505950	-11.180040	-8.348544	-12.430410	 6.507874	-25.968200	-5.213937	-0.202400	 3.566957	-1.378229	 35.397820	-2.634230	-1.510422	 6.535223	 5.063129	-4.881835	-21.331640	-7.609573	 87.726710	 87.419040	-176.798700	-88.620220	 62.272380	 73.475170	-5.305926	-13.288410	 27.421290	-36.240060	-8.994605	 18.777240	-0.301385	 26.251040	-62.392810	 5.070519	-0.690904	-9.399550	-2.350882	 35.473990	 5.254307
 0.014498	 0.028410	 1.222390	-177.840400	 1.255292	-0.199994	-20.282650	-12.508440	-174.940800	-0.556714	-40.054960	-6.214882	-172.793100	 85.759150	 158.264900	-1.994187	 55.402600	-0.804741	 6.933694	-10.765170	 177.388100	 6.717577	-40.313560	 9.705592	-157.602500	 83.725460	 167.322500	 2.383497	 28.647050	 0.005596	 1.511746	 5.456754	 0.941905	 1.491736	 11.294290	-0.153865	-2.874867	-26.699160	 0.113922	-91.229330	 83.958270	 178.242700	 74.013740	 71.701320	-57.978720	 4.541499	-13.312850	-32.240730	 23.202910	-11.573800	-8.519894	-11.888850	 7.801370	-25.181210	-5.213937	-0.202400	 3.566957	-1.378229	 35.397820	-2.634230	-1.680043	 6.916347	 4.909138	-5.069301	-22.249350	-7.638913	 87.727200	 87.419040	-176.799100	-90.117500	 62.316860	 74.869560	-4.937042	-13.570550	 28.323630	-35.827800	-9.537993	 18.782390	-0.745857	 25.563960	-62.259000	 5.070519	-0.690904	-9.399550	-2.350882	 35.473990	 5.254307
